<?xml version="1.0" ?><svg width="120px" height="120px" viewBox="0 0 120 120" id="svg4254" version="1.1" xmlns="http://www.w3.org/2000/svg" xmlns:cc="http://creativecommons.org/ns#" xmlns:dc="http://purl.org/dc/elements/1.1/" xmlns:rdf="http://www.w3.org/1999/02/22-rdf-syntax-ns#" xmlns:svg="http://www.w3.org/2000/svg"><defs id="defs4256"/><path d="M 112.61327,59.999893 A 52.613215,52.61317 0 0 1 60.000057,112.61306 52.613215,52.61317 0 0 1 7.3868411,59.999893 52.613215,52.61317 0 0 1 60.000057,7.3867239 52.613215,52.61317 0 0 1 112.61327,59.999893 Z" id="circle16012" style="opacity:1;fill:#80deea;fill-opacity:1;stroke:none;stroke-width:6.9000001;stroke-linecap:round;stroke-linejoin:miter;stroke-miterlimit:4;stroke-dasharray:none;stroke-dashoffset:0;stroke-opacity:1"/><path d="m 43.634881,49.818162 0,18.601674 -6.764032,0 -28.6240621,0.943345 C 12.773797,94.39536 34.56167,112.60349 59.99991,112.61329 c 22.618605,-0.0208 42.69283,-14.495513 49.85651,-35.949716 l -7.24586,0 0,-17.967159 -9.723942,0 0,21.137752 -12.935679,0 0,-14.373732 -7.779738,0 0,-6.552854 -7.186872,0 0,19.869713 -11.41434,0 0,-28.959132 z" id="path16014" style="fill:#37474f;fill-rule:evenodd;stroke:none;stroke-width:1px;stroke-linecap:butt;stroke-linejoin:miter;stroke-opacity:1"/><path d="m 96.902894,50.029836 0,25.788058 -5.707158,0 0,-7.186866 -3.170594,0 0,-17.755994 -9.089427,0 0,36.146506 -4.016277,0 0,-7.821405 -9.935109,0 0,-8.455387 -5.624873,0 0,-18.994794 -10.017418,5.783523 0,18.284417 -7.081289,0 0,15.431086 -5.601574,0 0,-26.211385 -8.032554,0 0,-8.032567 -21.0897041,0 A 52.613215,52.613171 0 0 0 7.3867145,60.000139 52.613215,52.613171 0 0 0 59.99991,112.61329 52.613215,52.613171 0 0 0 112.6131,60.000139 a 52.613215,52.613171 0 0 0 -0.19731,-4.26315 l -8.32602,0 0,-5.707153 -7.186876,0 z" id="path16016" style="fill:#263238;fill-rule:evenodd;stroke:none;stroke-width:1px;stroke-linecap:butt;stroke-linejoin:miter;stroke-opacity:1"/><path d="m 51.098291,62.376193 2.172747,0 0,2.172745 -2.172747,0 z" id="rect16018" style="opacity:1;fill:#37474f;fill-opacity:1;stroke:none;stroke-width:6.9000001;stroke-linecap:round;stroke-linejoin:miter;stroke-miterlimit:4;stroke-dasharray:none;stroke-dashoffset:0;stroke-opacity:1"/><path d="m 82.337405,71.643264 2.172747,0 0,2.172745 -2.172747,0 z" id="rect16020" style="opacity:1;fill:#37474f;fill-opacity:1;stroke:none;stroke-width:6.9000001;stroke-linecap:round;stroke-linejoin:miter;stroke-miterlimit:4;stroke-dasharray:none;stroke-dashoffset:0;stroke-opacity:1"/><path d="m 84.728919,54.753236 2.172747,0 0,2.172745 -2.172747,0 z" id="rect16022" style="opacity:1;fill:#37474f;fill-opacity:1;stroke:none;stroke-width:6.9000001;stroke-linecap:round;stroke-linejoin:miter;stroke-miterlimit:4;stroke-dasharray:none;stroke-dashoffset:0;stroke-opacity:1"/><path d="m 12.684699,60.881474 2.172747,0 0,2.172745 -2.172747,0 z" id="rect16024" style="opacity:1;fill:#37474f;fill-opacity:1;stroke:none;stroke-width:6.9000001;stroke-linecap:round;stroke-linejoin:miter;stroke-miterlimit:4;stroke-dasharray:none;stroke-dashoffset:0;stroke-opacity:1"/><path d="m 29.425267,71.045402 2.172747,0 0,2.172744 -2.172747,0 z" id="rect16026" style="opacity:1;fill:#37474f;fill-opacity:1;stroke:none;stroke-width:6.9000001;stroke-linecap:round;stroke-linejoin:miter;stroke-miterlimit:4;stroke-dasharray:none;stroke-dashoffset:0;stroke-opacity:1"/><path d="m 44.222726,78.369395 2.172746,0 0,2.172744 -2.172746,0 z" id="rect16028" style="opacity:1;fill:#37474f;fill-opacity:1;stroke:none;stroke-width:6.9000001;stroke-linecap:round;stroke-linejoin:miter;stroke-miterlimit:4;stroke-dasharray:none;stroke-dashoffset:0;stroke-opacity:1"/><path d="m 99.227462,52.959617 2.172748,0 0,2.172745 -2.172748,0 z" id="rect16030" style="opacity:1;fill:#37474f;fill-opacity:1;stroke:none;stroke-width:6.9000001;stroke-linecap:round;stroke-linejoin:miter;stroke-miterlimit:4;stroke-dasharray:none;stroke-dashoffset:0;stroke-opacity:1"/><path d="m 106.70092,59.984665 2.17274,0 0,2.172745 -2.17274,0 z" id="rect16032" style="opacity:1;fill:#37474f;fill-opacity:1;stroke:none;stroke-width:6.9000001;stroke-linecap:round;stroke-linejoin:miter;stroke-miterlimit:4;stroke-dasharray:none;stroke-dashoffset:0;stroke-opacity:1"/><path d="m 60.399078,74.424904 2.172747,0 0,2.172745 -2.172747,0 z" id="rect16034" style="opacity:1;fill:#37474f;fill-opacity:1;stroke:none;stroke-width:6.9000001;stroke-linecap:round;stroke-linejoin:miter;stroke-miterlimit:4;stroke-dasharray:none;stroke-dashoffset:0;stroke-opacity:1"/><path d="m 69.699867,81.400504 2.172747,0 0,2.172745 -2.172747,0 z" id="rect16036" style="opacity:1;fill:#37474f;fill-opacity:1;stroke:none;stroke-width:6.9000001;stroke-linecap:round;stroke-linejoin:miter;stroke-miterlimit:4;stroke-dasharray:none;stroke-dashoffset:0;stroke-opacity:1"/></svg>