<?xml version="1.0" ?><svg width="58px" height="58px" viewBox="-7.5 0 58 58" version="1.1" xmlns="http://www.w3.org/2000/svg" xmlns:xlink="http://www.w3.org/1999/xlink"><title/><desc/><g fill="none" fill-rule="evenodd" id="Page-1" stroke="none" stroke-width="1"><g id="007---Coffee-Cup"><path d="M36.0000079,7 L5.99999215,7 L6,1.085 C5.998909,0.810719867 6.11154259,0.548254026 6.31109127,0.36007564 C6.51063995,0.171897253 6.77925515,0.0748378879 7.053,0.092 C16.3425681,0.652000026 25.6574319,0.652000026 34.947,0.092 C35.2207449,0.0748378879 35.48936,0.171897253 35.6889087,0.36007564 C35.8884574,0.548254026 36.001091,0.810719867 36,1.085 L36.0000079,7 Z" fill="#F9E6A1" id="Path"/><path d="M35.2,46 L34.18,56.2 C34.0772869,57.2219821 33.2171307,58.0000129 32.19,58 L9.81,58 C8.78286935,58.0000129 7.92271307,57.2219821 7.82,56.2 L6.8,46 L4.3,21 L3.1,9 L3,6 L39,6.222 L38.9,9 L37.7,21 L35.2,46 Z" fill="#766458" id="Path"/><path d="M35.113,46 L6.887,46 C6.3807028,46.0000535 5.95424936,45.6216996 5.894,45.119 L3.134,22.119 C3.09997017,21.835067 3.18912525,21.5501497 3.37893202,21.3362587 C3.56873878,21.1223677 3.84103502,20.9999698 4.127,21 L37.873,21 C38.158965,20.9999698 38.4312612,21.1223677 38.621068,21.3362587 C38.8108747,21.5501497 38.9000298,21.835067 38.866,22.119 L36.106,45.119 C36.0457506,45.6216996 35.6192972,46.0000535 35.113,46 Z" fill="#F9E6A1" id="Path"/><rect fill="#EBD996" height="4" id="Rectangle" rx="1" width="43" x="0" y="5"/><path d="M7.919,18 C7.4058175,17.9994932 6.97631802,17.6106104 6.925,17.1 L6.525,13.1 C6.46977153,12.5502005 6.87070053,12.0597285 7.4205,12.0045 C7.97029947,11.9492715 8.46077153,12.3502005 8.516,12.9 L8.916,16.9 C8.94392748,17.1648586 8.86504851,17.4299159 8.69685043,17.6364091 C8.52865234,17.8429023 8.28503214,17.9737703 8.02,18 C7.98636142,18.0019447 7.95263858,18.0019447 7.919,18 Z" fill="#8A7567" id="Path"/><path d="M11.619,55 C11.1058175,54.9994932 10.676318,54.6106104 10.625,54.1 L10.225,50.1 C10.1697715,49.5504767 10.5704767,49.0602285 11.12,49.005 C11.6695233,48.9497715 12.1597715,49.3504767 12.215,49.9 L12.615,53.9 C12.6429374,54.1647015 12.5641932,54.4296188 12.396206,54.6360835 C12.2282188,54.8425482 11.9848515,54.9735222 11.72,55 C11.686,55 11.652,55 11.619,55 Z" fill="#8A7567" id="Path"/><path d="M7.748,28 C7.24208423,27.9995476 6.8162038,27.6213211 6.756,27.119 L6.516,25.119 C6.45027811,24.5705812 6.84158124,24.0727219 7.39,24.007 C7.93841876,23.9412781 8.43627811,24.3325812 8.502,24.881 L8.742,26.881 C8.77358943,27.1443651 8.69924901,27.409491 8.53533694,27.6180382 C8.37142487,27.8265854 8.13137177,27.9614659 7.868,27.993 C7.82818159,27.9977941 7.78810576,28.0001319 7.748,28 Z" fill="#FFF1B8" id="Path"/><path d="M9.428,42 C8.92208423,41.9995476 8.4962038,41.6213211 8.436,41.119 L7.236,31.119 C7.17027811,30.5703051 7.5618051,30.0722219 8.1105,30.0065 C8.6591949,29.9407781 9.15727811,30.3323051 9.223,30.881 L10.423,40.881 C10.4545894,41.1443651 10.380249,41.409491 10.2163369,41.6180382 C10.0524249,41.8265854 9.81237177,41.9614659 9.549,41.993 C9.50885041,41.9978353 9.46843933,42.0001731 9.428,42 Z" fill="#FFF1B8" id="Path"/></g></g></svg>