<?xml version="1.0" ?><svg width="120px" height="120px" viewBox="0 0 120 120" id="svg4254" version="1.1" xmlns="http://www.w3.org/2000/svg" xmlns:cc="http://creativecommons.org/ns#" xmlns:dc="http://purl.org/dc/elements/1.1/" xmlns:rdf="http://www.w3.org/1999/02/22-rdf-syntax-ns#" xmlns:svg="http://www.w3.org/2000/svg"><defs id="defs4256"/><path d="M 112.6133,59.999672 A 52.613281,52.612958 0 0 1 60.000016,112.61263 52.613281,52.612958 0 0 1 7.3867347,59.999672 52.613281,52.612958 0 0 1 60.000016,7.3867148 52.613281,52.612958 0 0 1 112.6133,59.999672 Z" id="circle16150" style="opacity:1;fill:#80deea;fill-opacity:1;stroke:none;stroke-width:6.9000001;stroke-linecap:round;stroke-linejoin:miter;stroke-miterlimit:4;stroke-dasharray:none;stroke-dashoffset:0;stroke-opacity:1"/><path d="m 90.100415,29.712003 0.48024,0 0,6.536941 -0.48024,0 z" id="rect16154" style="color:#000000;clip-rule:nonzero;display:inline;overflow:visible;visibility:visible;opacity:1;isolation:auto;mix-blend-mode:normal;color-interpolation:sRGB;color-interpolation-filters:linearRGB;solid-color:#000000;solid-opacity:1;fill:#37474f;fill-opacity:1;fill-rule:nonzero;stroke:none;stroke-width:35.20000076;stroke-linecap:butt;stroke-linejoin:miter;stroke-miterlimit:4;stroke-dasharray:none;stroke-dashoffset:0;stroke-opacity:1;color-rendering:auto;image-rendering:auto;shape-rendering:auto;text-rendering:auto;enable-background:accumulate"/><path d="m 91.653076,30.555814 c -0.223146,0.386471 -2.401947,0.386471 -2.625068,0 -0.223146,-0.386474 0.866266,-2.273365 1.312534,-2.273365 0.446242,0 1.535655,1.886891 1.312534,2.273365 z" id="path16156" style="color:#000000;clip-rule:nonzero;display:inline;overflow:visible;visibility:visible;opacity:1;isolation:auto;mix-blend-mode:normal;color-interpolation:sRGB;color-interpolation-filters:linearRGB;solid-color:#000000;solid-opacity:1;fill:#37474f;fill-opacity:1;fill-rule:nonzero;stroke:none;stroke-width:35.20000076;stroke-linecap:butt;stroke-linejoin:miter;stroke-miterlimit:4;stroke-dasharray:none;stroke-dashoffset:0;stroke-opacity:1;color-rendering:auto;image-rendering:auto;shape-rendering:auto;text-rendering:auto;enable-background:accumulate"/><path d="m 92.595611,33.340915 c -0.383374,0.664001 -4.126789,0.664001 -4.510163,0 -0.383349,-0.663999 1.488345,-3.905882 2.255094,-3.905882 0.766724,0 2.638418,3.241883 2.255069,3.905882 z" id="path16158" style="color:#000000;clip-rule:nonzero;display:inline;overflow:visible;visibility:visible;opacity:1;isolation:auto;mix-blend-mode:normal;color-interpolation:sRGB;color-interpolation-filters:linearRGB;solid-color:#000000;solid-opacity:1;fill:#37474f;fill-opacity:1;fill-rule:nonzero;stroke:none;stroke-width:35.20000076;stroke-linecap:butt;stroke-linejoin:miter;stroke-miterlimit:4;stroke-dasharray:none;stroke-dashoffset:0;stroke-opacity:1;color-rendering:auto;image-rendering:auto;shape-rendering:auto;text-rendering:auto;enable-background:accumulate"/><path d="m 54.992374,62.288132 0.564502,0 0,7.683898 -0.564502,0 z" id="rect16162" style="color:#000000;clip-rule:nonzero;display:inline;overflow:visible;visibility:visible;opacity:1;isolation:auto;mix-blend-mode:normal;color-interpolation:sRGB;color-interpolation-filters:linearRGB;solid-color:#000000;solid-opacity:1;fill:#37474f;fill-opacity:1;fill-rule:nonzero;stroke:none;stroke-width:35.20000076;stroke-linecap:butt;stroke-linejoin:miter;stroke-miterlimit:4;stroke-dasharray:none;stroke-dashoffset:0;stroke-opacity:1;color-rendering:auto;image-rendering:auto;shape-rendering:auto;text-rendering:auto;enable-background:accumulate"/><path d="m 56.817485,63.279991 c -0.262284,0.454283 -2.823367,0.454283 -3.085651,0 -0.262283,-0.45428 1.018271,-2.672241 1.542838,-2.672241 0.524542,0 1.805096,2.217961 1.542813,2.672241 z" id="path16164" style="color:#000000;clip-rule:nonzero;display:inline;overflow:visible;visibility:visible;opacity:1;isolation:auto;mix-blend-mode:normal;color-interpolation:sRGB;color-interpolation-filters:linearRGB;solid-color:#000000;solid-opacity:1;fill:#37474f;fill-opacity:1;fill-rule:nonzero;stroke:none;stroke-width:35.20000076;stroke-linecap:butt;stroke-linejoin:miter;stroke-miterlimit:4;stroke-dasharray:none;stroke-dashoffset:0;stroke-opacity:1;color-rendering:auto;image-rendering:auto;shape-rendering:auto;text-rendering:auto;enable-background:accumulate"/><path d="m 57.9254,66.553737 c -0.450608,0.780503 -4.850848,0.780503 -5.301481,0 -0.450633,-0.780505 1.749487,-4.591201 2.650753,-4.591201 0.901241,0 3.101361,3.810696 2.650728,4.591201 z" id="path16166" style="color:#000000;clip-rule:nonzero;display:inline;overflow:visible;visibility:visible;opacity:1;isolation:auto;mix-blend-mode:normal;color-interpolation:sRGB;color-interpolation-filters:linearRGB;solid-color:#000000;solid-opacity:1;fill:#37474f;fill-opacity:1;fill-rule:nonzero;stroke:none;stroke-width:35.20000076;stroke-linecap:butt;stroke-linejoin:miter;stroke-miterlimit:4;stroke-dasharray:none;stroke-dashoffset:0;stroke-opacity:1;color-rendering:auto;image-rendering:auto;shape-rendering:auto;text-rendering:auto;enable-background:accumulate"/><path d="m 54.992374,62.288132 0.564502,0 0,7.683898 -0.564502,0 z" id="rect16168" style="color:#000000;clip-rule:nonzero;display:inline;overflow:visible;visibility:visible;opacity:1;isolation:auto;mix-blend-mode:normal;color-interpolation:sRGB;color-interpolation-filters:linearRGB;solid-color:#000000;solid-opacity:1;fill:#37474f;fill-opacity:1;fill-rule:nonzero;stroke:none;stroke-width:35.20000076;stroke-linecap:butt;stroke-linejoin:miter;stroke-miterlimit:4;stroke-dasharray:none;stroke-dashoffset:0;stroke-opacity:1;color-rendering:auto;image-rendering:auto;shape-rendering:auto;text-rendering:auto;enable-background:accumulate"/><path d="m 56.817485,63.279991 c -0.262284,0.454283 -2.823367,0.454283 -3.085651,0 -0.262283,-0.45428 1.018271,-2.672241 1.542838,-2.672241 0.524542,0 1.805096,2.217961 1.542813,2.672241 z" id="path16170" style="color:#000000;clip-rule:nonzero;display:inline;overflow:visible;visibility:visible;opacity:1;isolation:auto;mix-blend-mode:normal;color-interpolation:sRGB;color-interpolation-filters:linearRGB;solid-color:#000000;solid-opacity:1;fill:#37474f;fill-opacity:1;fill-rule:nonzero;stroke:none;stroke-width:35.20000076;stroke-linecap:butt;stroke-linejoin:miter;stroke-miterlimit:4;stroke-dasharray:none;stroke-dashoffset:0;stroke-opacity:1;color-rendering:auto;image-rendering:auto;shape-rendering:auto;text-rendering:auto;enable-background:accumulate"/><path d="m 57.9254,66.553737 c -0.450608,0.780503 -4.850848,0.780503 -5.301481,0 -0.450633,-0.780505 1.749487,-4.591201 2.650753,-4.591201 0.901241,0 3.101361,3.810696 2.650728,4.591201 z" id="path16172" style="color:#000000;clip-rule:nonzero;display:inline;overflow:visible;visibility:visible;opacity:1;isolation:auto;mix-blend-mode:normal;color-interpolation:sRGB;color-interpolation-filters:linearRGB;solid-color:#000000;solid-opacity:1;fill:#37474f;fill-opacity:1;fill-rule:nonzero;stroke:none;stroke-width:35.20000076;stroke-linecap:butt;stroke-linejoin:miter;stroke-miterlimit:4;stroke-dasharray:none;stroke-dashoffset:0;stroke-opacity:1;color-rendering:auto;image-rendering:auto;shape-rendering:auto;text-rendering:auto;enable-background:accumulate"/><path d="m 100.11386,26.043678 -4.317807,9.714646 -17.46091,-2.32862 -7.566803,4.073802 -13.388384,31.432565 -23.282517,6.98458 -13.854372,18.440537 A 52.613281,52.612955 0 0 0 60.000328,112.61328 52.613281,52.612955 0 0 0 112.61285,59.999777 52.613281,52.612955 0 0 0 100.11386,26.043678 Z" id="path16174" style="fill:#263238;fill-rule:evenodd;stroke:none;stroke-width:2.6039536px;stroke-linecap:butt;stroke-linejoin:miter;stroke-opacity:1"/><path d="m 37.216516,75.23383 14.229802,-3.812833 -2.630067,-2.587666 -2.235348,-0.03046 -1.98875,-2.904709 -2.529738,0.677831 -1.724868,-1.377685 -1.362331,1.962806 0.168832,2.617687 -2.117557,0.228475 -0.478957,2.549189 -0.953425,1.320648 z" id="path16176" style="fill:#263238;fill-rule:evenodd;stroke:none;stroke-width:2.6039536px;stroke-linecap:butt;stroke-linejoin:miter;stroke-opacity:1"/><path d="m 21.108254,73.27438 3.494442,3.494451 3.498572,-2.993563 0.118986,-3.272205 -3.158035,-2.355015 -3.964106,0.446593 z" id="path16178" style="fill:#263238;fill-rule:evenodd;stroke:none;stroke-width:2.6039536px;stroke-linecap:butt;stroke-linejoin:miter;stroke-opacity:1"/><path d="m 29.139663,75.293423 1.247078,-4.65417 3.536156,2.041606 -2.136237,3.700016 -1.001596,-1.734781 z" id="path16180" style="fill:#263238;fill-rule:evenodd;stroke:none;stroke-width:2.6039536px;stroke-linecap:butt;stroke-linejoin:miter;stroke-opacity:1"/><path d="m 20.811771,79.567901 0,1.621559 2.93697,-0.786974 -0.944946,-1.636684 z" id="path16182" style="fill:#263238;fill-rule:evenodd;stroke:none;stroke-width:2.6039536px;stroke-linecap:butt;stroke-linejoin:miter;stroke-opacity:1"/><path d="m 79.862774,24.51192 0.862268,0 0,11.737032 -0.862268,0 z" id="rect16184" style="color:#000000;clip-rule:nonzero;display:inline;overflow:visible;visibility:visible;opacity:1;isolation:auto;mix-blend-mode:normal;color-interpolation:sRGB;color-interpolation-filters:linearRGB;solid-color:#000000;solid-opacity:1;fill:#263238;fill-opacity:1;fill-rule:nonzero;stroke:none;stroke-width:35.20000076;stroke-linecap:butt;stroke-linejoin:miter;stroke-miterlimit:4;stroke-dasharray:none;stroke-dashoffset:0;stroke-opacity:1;color-rendering:auto;image-rendering:auto;shape-rendering:auto;text-rendering:auto;enable-background:accumulate"/><path d="m 82.650566,26.026983 c -0.400608,0.693907 -4.312651,0.693907 -4.713284,0 -0.400634,-0.693907 1.555375,-4.081809 2.356642,-4.081809 0.801266,0 2.757276,3.387902 2.356642,4.081809 z" id="path16186" style="color:#000000;clip-rule:nonzero;display:inline;overflow:visible;visibility:visible;opacity:1;isolation:auto;mix-blend-mode:normal;color-interpolation:sRGB;color-interpolation-filters:linearRGB;solid-color:#000000;solid-opacity:1;fill:#263238;fill-opacity:1;fill-rule:nonzero;stroke:none;stroke-width:35.20000076;stroke-linecap:butt;stroke-linejoin:miter;stroke-miterlimit:4;stroke-dasharray:none;stroke-dashoffset:0;stroke-opacity:1;color-rendering:auto;image-rendering:auto;shape-rendering:auto;text-rendering:auto;enable-background:accumulate"/><path d="m 84.342896,31.027584 c -0.688323,1.192207 -7.409621,1.192207 -8.097944,0 -0.688323,-1.192207 2.672326,-7.012985 4.048972,-7.012985 1.376645,0 4.737295,5.820778 4.048972,7.012985 z" id="path16188" style="color:#000000;clip-rule:nonzero;display:inline;overflow:visible;visibility:visible;opacity:1;isolation:auto;mix-blend-mode:normal;color-interpolation:sRGB;color-interpolation-filters:linearRGB;solid-color:#000000;solid-opacity:1;fill:#263238;fill-opacity:1;fill-rule:nonzero;stroke:none;stroke-width:35.20000076;stroke-linecap:butt;stroke-linejoin:miter;stroke-miterlimit:4;stroke-dasharray:none;stroke-dashoffset:0;stroke-opacity:1;color-rendering:auto;image-rendering:auto;shape-rendering:auto;text-rendering:auto;enable-background:accumulate"/></svg>