<?xml version="1.0" ?><svg width="60px" height="60px" viewBox="0 -17 60 60" version="1.1" xmlns="http://www.w3.org/2000/svg" xmlns:xlink="http://www.w3.org/1999/xlink"><title/><desc/><g fill="none" fill-rule="evenodd" id="Page-1" stroke="none" stroke-width="1"><g id="003---Glasses"><circle cx="16" cy="13" fill="#4AEDFF" id="Oval" r="12"/><circle cx="44" cy="13" fill="#4AEDFF" id="Oval" r="12"/><path d="M33,8 C33,8 33,6 30,6 C27,6 27,8 27,8 L28,12 C28,10.8954305 28.8954305,10 30,10 C31.1045695,10 32,10.8954305 32,12 L33,8 Z" fill="#66564C" id="Path"/><path d="M8.254,12 C8.16830383,12.0003942 8.08292055,11.9896372 8,11.968 C7.46547393,11.8298152 7.14406965,11.2845918 7.282,10.75 C8.30834838,6.7749683 11.8946054,3.99827242 16,4 C16.5522847,4 17,4.44771525 17,5 C17,5.55228475 16.5522847,6 16,6 C12.8075358,5.99941664 10.019116,8.15890974 9.221,11.25 C9.10711668,11.6910697 8.70953435,11.9994324 8.254,12 Z" fill="#91F5FF" id="Path"/><path d="M8.584,17 C8.17762289,17.000079 7.81161054,16.7542262 7.658,16.378 C7.5090404,16.0109365 7.38443698,15.6344538 7.285,15.251 C7.18672625,14.902109 7.28494038,14.5273536 7.5417006,14.2715081 C7.79846082,14.0156627 8.17356437,13.9187868 8.52210243,14.0183052 C8.8706405,14.1178236 9.13803999,14.398154 9.221,14.751 C9.29787003,15.048086 9.39441648,15.3397298 9.51,15.624 C9.71621466,16.1343012 9.4712955,16.7153138 8.962,16.924 C8.84219849,16.9738616 8.71376316,16.9996845 8.584,17 Z" fill="#91F5FF" id="Path"/><path d="M36.254,12 C36.1683038,12.0003942 36.0829206,11.9896372 36,11.968 C35.4654739,11.8298152 35.1440696,11.2845918 35.282,10.75 C36.3083484,6.7749683 39.8946054,3.99827242 44,4 C44.5522847,4 45,4.44771525 45,5 C45,5.55228475 44.5522847,6 44,6 C40.8075358,5.99941664 38.019116,8.15890974 37.221,11.25 C37.1071167,11.6910697 36.7095344,11.9994324 36.254,12 Z" fill="#91F5FF" id="Path"/><path d="M36.584,17 C36.1776229,17.000079 35.8116105,16.7542262 35.658,16.378 C35.5090404,16.0109365 35.384437,15.6344538 35.285,15.251 C35.1605413,14.7216514 35.4818889,14.1898719 36.0083961,14.0538938 C36.5349034,13.9179157 37.0735672,14.2275848 37.221,14.751 C37.29787,15.048086 37.3944165,15.3397298 37.51,15.624 C37.7162147,16.1343012 37.4712955,16.7153138 36.962,16.924 C36.8421985,16.9738616 36.7137632,16.9996845 36.584,17 Z" fill="#91F5FF" id="Path"/><path d="M16,0 C9.21257916,0.00599475059 3.57210685,5.23268723 3.05,12 L1,12 C0.447715273,12 5.96046448e-08,12.4477153 5.96046448e-08,13 C5.96046447e-08,13.5522847 0.447715273,14 1,14 L3.05,14 C3.59552722,21.0251469 9.64085637,26.3353638 16.6777035,25.9705743 C23.7145507,25.6057847 29.178388,19.6989336 28.9945771,12.6550353 C28.8107662,5.61113702 23.0462956,-0.00271080158 16,0 Z M16,24 C9.92486775,24 5,19.0751322 5,13 C5,6.92486775 9.92486775,2 16,2 C22.0751322,2 27,6.92486775 27,13 C26.9961387,19.0735321 22.0735321,23.9961387 16,24 Z" fill="#766458" fill-rule="nonzero" id="Shape"/><path d="M59,12 L56.96,12 C56.422691,5.03567972 50.4779885,-0.259220493 43.4981478,0.00963321999 C36.5183072,0.278486933 30.9985186,6.01498333 30.9985186,13 C30.9985186,19.9850167 36.5183072,25.7215131 43.4981478,25.9903668 C50.4779885,26.2592205 56.422691,20.9643203 56.96,14 L59,14 C59.5522847,14 60,13.5522847 60,13 C60,12.4477153 59.5522847,12 59,12 Z M44,24 C37.9248678,24 33,19.0751322 33,13 C33,6.92486775 37.9248678,2 44,2 C50.0751322,2 55,6.92486775 55,13 C54.9961387,19.0735321 50.0735321,23.9961387 44,24 Z" fill="#766458" fill-rule="nonzero" id="Shape"/></g></g></svg>