<?xml version="1.0" ?><svg width="120px" height="120px" viewBox="0 0 120 120" id="svg4254" version="1.1" xmlns="http://www.w3.org/2000/svg" xmlns:cc="http://creativecommons.org/ns#" xmlns:dc="http://purl.org/dc/elements/1.1/" xmlns:rdf="http://www.w3.org/1999/02/22-rdf-syntax-ns#" xmlns:svg="http://www.w3.org/2000/svg"><defs id="defs4256"/><path d="M 112.61329,59.999923 A 52.613281,52.613197 0 0 1 60.000007,112.61312 52.613281,52.613197 0 0 1 7.3867254,59.999923 52.613281,52.613197 0 0 1 60.000007,7.3867255 52.613281,52.613197 0 0 1 112.61329,59.999923 Z" id="circle15954" style="opacity:1;fill:#80deea;fill-opacity:1;stroke:none;stroke-width:6.9000001;stroke-linecap:round;stroke-linejoin:miter;stroke-miterlimit:4;stroke-dasharray:none;stroke-dashoffset:0;stroke-opacity:1"/><path d="m 58.207066,45.287805 -6.42696,27.651963 -0.897231,-7.473391 -1.643802,5.530177 -0.896749,-20.327768 c -1.622229,7.358237 -0.125938,15.340177 -9.117687,21.224515 L 33.507924,54.411733 c 0,0 -2.917665,14.738738 -4.238742,12.450576 -3.353957,-5.809226 -14.723698,-8.736903 -14.723698,-8.736903 0,0 6.679497,4.166239 4.084157,13.852184 -0.377859,1.410171 -5.495223,-9.482849 -5.495223,-9.482849 0,0 -2.478125,14.747291 -2.88088,14.436506 7.24298,21.310179 27.2391,35.652933 49.746541,35.682043 26.567887,-0.0229 48.949901,-19.849428 52.178011,-46.220446 -3.84857,-3.15364 -3.43042,-7.526335 -4.79555,-11.38953 l -2.24212,16.740292 -4.18494,-16.7405 0.59795,16.441567 c -2.930477,-1.53281 -3.241313,-3.814068 -3.437811,-6.128016 L 96.620548,73.08898 C 91.632747,66.45622 92.641677,58.966803 93.033554,51.565533 L 89.147145,72.341928 87.652557,67.70799 83.318026,76.825663 C 78.52624,67.108526 79.059004,58.456298 77.937028,49.473122 l -2.690245,24.512605 -4.484224,-4.035615 c 2.03842,5.785963 -1.917406,6.776567 -3.437806,9.715487 l 0.448627,-24.213663 -5.231785,20.47698 -2.541033,-6.426949 -1.643776,5.97883 C 55.686464,64.834146 57.522143,55.188841 58.207066,45.287805 Z" id="path15956" style="fill:#009688;fill-opacity:1;fill-rule:evenodd;stroke:none;stroke-width:1px;stroke-linecap:butt;stroke-linejoin:miter;stroke-opacity:1"/><path d="m 61.793095,45.287805 6.426959,27.651963 0.89723,-7.473391 1.643802,5.530177 0.896749,-20.327768 c 1.622228,7.358237 0.125939,15.340177 9.117686,21.224515 l 5.71671,-17.481568 c 0,0 2.91768,14.738738 4.238742,12.450576 3.353974,-5.809226 14.723707,-8.736903 14.723707,-8.736903 0,0 -6.679494,4.166239 -4.08417,13.852184 0.37786,1.410171 5.49523,-9.482849 5.49523,-9.482849 0,0 2.47812,14.747291 2.88088,14.436506 C 102.50365,98.241426 82.507521,112.58418 60.000079,112.61329 33.432193,112.59044 11.050186,92.763862 7.8220738,66.392844 11.67064,63.239204 11.252495,58.866509 12.617617,55.003314 l 2.242125,16.740292 4.184936,-16.7405 -0.597942,16.441567 c 2.930473,-1.53281 3.241309,-3.814068 3.437806,-6.128016 l 1.495072,7.772323 c 4.987801,-6.63276 3.97887,-14.122177 3.586993,-21.523447 l 3.88641,20.776395 1.494587,-4.633938 4.334529,9.117673 c 4.791787,-9.717137 4.259022,-18.369365 5.380998,-27.352541 l 2.690246,24.512605 4.484225,-4.035615 c -2.038421,5.785963 1.917404,6.776567 3.437806,9.715487 l -0.448629,-24.213663 5.231786,20.47698 2.541032,-6.426949 1.643776,5.97883 c 2.670322,-10.646651 0.834643,-20.291956 0.149722,-30.192992 z" id="path15958" style="fill:#00695c;fill-opacity:1;fill-rule:evenodd;stroke:none;stroke-width:1px;stroke-linecap:butt;stroke-linejoin:miter;stroke-opacity:1"/></svg>