<?xml version="1.0" ?><svg width="58px" height="58px" viewBox="0 -7 58 58" version="1.1" xmlns="http://www.w3.org/2000/svg" xmlns:xlink="http://www.w3.org/1999/xlink"><title/><desc/><g fill="none" fill-rule="evenodd" id="Page-1" stroke="none" stroke-width="1"><g id="002---Laptop"><path d="M5,1 L53,1 C54.1045695,1 55,1.8954305 55,3 L55,36 L3,36 L3,3 C3,1.8954305 3.8954305,1 5,1 Z" fill="#4AEDFF" id="Path"/><path d="M54,36 L54,3 C54,2.44771525 53.5522847,2 53,2 L5,2 C4.44771525,2 4,2.44771525 4,3 L4,36 L2,36 L2,3 C2,1.34314575 3.34314575,0 5,0 L53,0 C54.6568542,0 56,1.34314575 56,3 L56,36 L54,36 Z" fill="#766458" id="Path"/><path d="M1,36 L57,36 C57.5522847,36 58,36.4477153 58,37 L58,40 C58,42.209139 56.209139,44 54,44 L4,44 C1.790861,44 2.22044605e-16,42.209139 0,40 L0,37 C-1.11022302e-16,36.4477153 0.44771525,36 1,36 Z" fill="#63544A" id="Path"/><path d="M6,41 L4,41 C3.44771525,41 3,40.5522847 3,40 C3,39.4477153 3.44771525,39 4,39 L6,39 C6.55228475,39 7,39.4477153 7,40 C7,40.5522847 6.55228475,41 6,41 Z" fill="#736256" id="Path"/><path d="M23,41 L10,41 C9.44771525,41 9,40.5522847 9,40 C9,39.4477153 9.44771525,39 10,39 L23,39 C23.5522847,39 24,39.4477153 24,40 C24,40.5522847 23.5522847,41 23,41 Z" fill="#736256" id="Path"/><path d="M7,9 C6.44771525,9 6,8.55228475 6,8 L6,6 C6,5.44771525 6.44771525,5 7,5 C7.55228475,5 8,5.44771525 8,6 L8,8 C8,8.55228475 7.55228475,9 7,9 Z" fill="#B3F7FF" id="Path"/><path d="M7,32 C6.44771525,32 6,31.5522847 6,31 L6,13 C6,12.4477153 6.44771525,12 7,12 C7.55228475,12 8,12.4477153 8,13 L8,31 C8,31.5522847 7.55228475,32 7,32 Z" fill="#B3F7FF" id="Path"/></g></g></svg>