<?xml version="1.0" ?><svg width="120px" height="120px" viewBox="0 0 120 120" id="svg4254" version="1.1" xmlns="http://www.w3.org/2000/svg" xmlns:cc="http://creativecommons.org/ns#" xmlns:dc="http://purl.org/dc/elements/1.1/" xmlns:rdf="http://www.w3.org/1999/02/22-rdf-syntax-ns#" xmlns:svg="http://www.w3.org/2000/svg"><defs id="defs4256"/><path d="M 112.61328,60.000002 A 52.613281,52.613281 0 0 1 59.999998,112.61328 52.613281,52.613281 0 0 1 7.3867161,60.000002 52.613281,52.613281 0 0 1 59.999998,7.3867209 52.613281,52.613281 0 0 1 112.61328,60.000002 Z" id="path4136" style="opacity:1;fill:#80deea;fill-opacity:1;stroke:none;stroke-width:6.9000001;stroke-linecap:round;stroke-linejoin:miter;stroke-miterlimit:4;stroke-dasharray:none;stroke-dashoffset:0;stroke-opacity:1"/><path d="m 92.007908,44.216134 0.833669,0 0,11.347838 -0.833669,0 z" id="rect9563" style="color:#000000;clip-rule:nonzero;display:inline;overflow:visible;visibility:visible;opacity:1;isolation:auto;mix-blend-mode:normal;color-interpolation:sRGB;color-interpolation-filters:linearRGB;solid-color:#000000;solid-opacity:1;fill:#263238;fill-opacity:1;fill-rule:nonzero;stroke:none;stroke-width:35.20000076;stroke-linecap:butt;stroke-linejoin:miter;stroke-miterlimit:4;stroke-dasharray:none;stroke-dashoffset:0;stroke-opacity:1;color-rendering:auto;image-rendering:auto;shape-rendering:auto;text-rendering:auto;enable-background:accumulate"/><path d="m 94.703239,45.680953 c -0.387343,0.670898 -4.169634,0.670898 -4.556978,0 -0.387343,-0.670898 1.503803,-3.946458 2.278489,-3.946458 0.774687,0 2.665832,3.27556 2.278489,3.946458 z" id="path9565" style="color:#000000;clip-rule:nonzero;display:inline;overflow:visible;visibility:visible;opacity:1;isolation:auto;mix-blend-mode:normal;color-interpolation:sRGB;color-interpolation-filters:linearRGB;solid-color:#000000;solid-opacity:1;fill:#263238;fill-opacity:1;fill-rule:nonzero;stroke:none;stroke-width:35.20000076;stroke-linecap:butt;stroke-linejoin:miter;stroke-miterlimit:4;stroke-dasharray:none;stroke-dashoffset:0;stroke-opacity:1;color-rendering:auto;image-rendering:auto;shape-rendering:auto;text-rendering:auto;enable-background:accumulate"/><path d="m 96.339438,50.515738 c -0.665497,1.152675 -7.163878,1.152675 -7.829374,0 -0.665498,-1.152674 2.583692,-6.780437 3.914686,-6.780437 1.330994,0 4.580185,5.627763 3.914688,6.780437 z" id="path9567" style="color:#000000;clip-rule:nonzero;display:inline;overflow:visible;visibility:visible;opacity:1;isolation:auto;mix-blend-mode:normal;color-interpolation:sRGB;color-interpolation-filters:linearRGB;solid-color:#000000;solid-opacity:1;fill:#263238;fill-opacity:1;fill-rule:nonzero;stroke:none;stroke-width:35.20000076;stroke-linecap:butt;stroke-linejoin:miter;stroke-miterlimit:4;stroke-dasharray:none;stroke-dashoffset:0;stroke-opacity:1;color-rendering:auto;image-rendering:auto;shape-rendering:auto;text-rendering:auto;enable-background:accumulate"/><path d="m 43.394058,58.577046 c -2.800997,0.05366 -7.031236,1.260085 -14.40168,3.828573 -8.427676,2.936913 -15.616858,3.088015 -21.3824354,2.071762 A 52.613282,52.613282 0 0 0 60.000457,112.61336 52.613282,52.613282 0 0 0 110.72453,73.745471 c -1.8048,0.258888 -3.67751,0.750723 -5.61508,1.525754 C 83.668157,83.847742 74.734218,85.634392 59.367956,72.769613 48.803651,63.925074 49.55625,58.459009 43.394058,58.577046 Z" id="path4143" style="fill:#4fc3f7;fill-opacity:1;fill-rule:evenodd;stroke:none;stroke-width:1px;stroke-linecap:butt;stroke-linejoin:miter;stroke-opacity:1"/><path d="m 76.623172,65.552361 16.924231,-13.586915 10.478637,1.190068 7.81018,13.52762 z" id="path9559" style="fill:#263238;fill-rule:evenodd;stroke:none;stroke-width:2.6039536px;stroke-linecap:butt;stroke-linejoin:miter;stroke-opacity:1"/><path d="M 80.345073,58.577046 C 74.182883,58.459009 74.935482,63.925074 64.371176,72.769613 49.00491,85.634392 40.070976,83.847742 18.629674,75.271225 15.281121,73.931799 12.125096,73.430665 9.182162,73.536362 A 52.613282,52.613282 0 0 0 60.000457,112.61336 52.613282,52.613282 0 0 0 112.36645,64.938207 C 107.3318,65.306057 101.4303,64.735185 94.74546,62.405619 87.375012,59.837131 83.146073,58.630704 80.345073,58.577046 Z" id="path4138" style="fill:#03a9f4;fill-rule:evenodd;stroke:none;stroke-width:1px;stroke-linecap:butt;stroke-linejoin:miter;stroke-opacity:1"/><path d="m 99.238989,47.708351 0.498216,0 0,6.781665 -0.498216,0 z" id="rect9577" style="color:#000000;clip-rule:nonzero;display:inline;overflow:visible;visibility:visible;opacity:1;isolation:auto;mix-blend-mode:normal;color-interpolation:sRGB;color-interpolation-filters:linearRGB;solid-color:#000000;solid-opacity:1;fill:#263238;fill-opacity:1;fill-rule:nonzero;stroke:none;stroke-width:35.20000076;stroke-linecap:butt;stroke-linejoin:miter;stroke-miterlimit:4;stroke-dasharray:none;stroke-dashoffset:0;stroke-opacity:1;color-rendering:auto;image-rendering:auto;shape-rendering:auto;text-rendering:auto;enable-background:accumulate"/><path d="m 100.84977,48.583753 c -0.23149,0.400941 -2.491848,0.400941 -2.723331,0 -0.231483,-0.40094 0.898698,-2.358473 1.361664,-2.358473 0.462966,0 1.593147,1.957533 1.361667,2.358473 z" id="path9579" style="color:#000000;clip-rule:nonzero;display:inline;overflow:visible;visibility:visible;opacity:1;isolation:auto;mix-blend-mode:normal;color-interpolation:sRGB;color-interpolation-filters:linearRGB;solid-color:#000000;solid-opacity:1;fill:#263238;fill-opacity:1;fill-rule:nonzero;stroke:none;stroke-width:35.20000076;stroke-linecap:butt;stroke-linejoin:miter;stroke-miterlimit:4;stroke-dasharray:none;stroke-dashoffset:0;stroke-opacity:1;color-rendering:auto;image-rendering:auto;shape-rendering:auto;text-rendering:auto;enable-background:accumulate"/><path d="m 101.82759,51.473105 c -0.39771,0.688858 -4.28126,0.688858 -4.678973,0 -0.397712,-0.688859 1.544061,-4.052108 2.339486,-4.052108 0.795427,0 2.737197,3.363249 2.339487,4.052108 z" id="path9581" style="color:#000000;clip-rule:nonzero;display:inline;overflow:visible;visibility:visible;opacity:1;isolation:auto;mix-blend-mode:normal;color-interpolation:sRGB;color-interpolation-filters:linearRGB;solid-color:#000000;solid-opacity:1;fill:#263238;fill-opacity:1;fill-rule:nonzero;stroke:none;stroke-width:35.20000076;stroke-linecap:butt;stroke-linejoin:miter;stroke-miterlimit:4;stroke-dasharray:none;stroke-dashoffset:0;stroke-opacity:1;color-rendering:auto;image-rendering:auto;shape-rendering:auto;text-rendering:auto;enable-background:accumulate"/><path d="m 85.669154,54.297924 0.308985,0 0,4.205875 -0.308985,0 z" id="rect9585" style="color:#000000;clip-rule:nonzero;display:inline;overflow:visible;visibility:visible;opacity:1;isolation:auto;mix-blend-mode:normal;color-interpolation:sRGB;color-interpolation-filters:linearRGB;solid-color:#000000;solid-opacity:1;fill:#37474f;fill-opacity:1;fill-rule:nonzero;stroke:none;stroke-width:35.20000076;stroke-linecap:butt;stroke-linejoin:miter;stroke-miterlimit:4;stroke-dasharray:none;stroke-dashoffset:0;stroke-opacity:1;color-rendering:auto;image-rendering:auto;shape-rendering:auto;text-rendering:auto;enable-background:accumulate"/><path d="m 86.66813,54.840834 c -0.143562,0.248657 -1.545401,0.248657 -1.688964,0 -0.143561,-0.248656 0.557359,-1.462685 0.844483,-1.462685 0.287122,0 0.988042,1.214029 0.844481,1.462685 z" id="path9587" style="color:#000000;clip-rule:nonzero;display:inline;overflow:visible;visibility:visible;opacity:1;isolation:auto;mix-blend-mode:normal;color-interpolation:sRGB;color-interpolation-filters:linearRGB;solid-color:#000000;solid-opacity:1;fill:#37474f;fill-opacity:1;fill-rule:nonzero;stroke:none;stroke-width:35.20000076;stroke-linecap:butt;stroke-linejoin:miter;stroke-miterlimit:4;stroke-dasharray:none;stroke-dashoffset:0;stroke-opacity:1;color-rendering:auto;image-rendering:auto;shape-rendering:auto;text-rendering:auto;enable-background:accumulate"/><path d="m 87.274557,56.632762 c -0.246653,0.427218 -2.655163,0.427218 -2.901818,0 -0.246655,-0.427219 0.9576,-2.51305 1.45091,-2.51305 0.493308,0 1.697563,2.085831 1.450908,2.51305 z" id="path9589" style="color:#000000;clip-rule:nonzero;display:inline;overflow:visible;visibility:visible;opacity:1;isolation:auto;mix-blend-mode:normal;color-interpolation:sRGB;color-interpolation-filters:linearRGB;solid-color:#000000;solid-opacity:1;fill:#37474f;fill-opacity:1;fill-rule:nonzero;stroke:none;stroke-width:35.20000076;stroke-linecap:butt;stroke-linejoin:miter;stroke-miterlimit:4;stroke-dasharray:none;stroke-dashoffset:0;stroke-opacity:1;color-rendering:auto;image-rendering:auto;shape-rendering:auto;text-rendering:auto;enable-background:accumulate"/></svg>