<?xml version="1.0" ?><svg width="120px" height="120px" viewBox="0 0 120 120" id="svg4254" version="1.1" xmlns="http://www.w3.org/2000/svg" xmlns:cc="http://creativecommons.org/ns#" xmlns:dc="http://purl.org/dc/elements/1.1/" xmlns:rdf="http://www.w3.org/1999/02/22-rdf-syntax-ns#" xmlns:svg="http://www.w3.org/2000/svg"><defs id="defs4256"/><path d="M 112.61328,60.000005 A 52.613281,52.613281 0 0 1 60.000002,112.61329 52.613281,52.613281 0 0 1 7.3867209,60.000005 52.613281,52.613281 0 0 1 60.000002,7.3867239 52.613281,52.613281 0 0 1 112.61328,60.000005 Z" id="circle16348" style="opacity:1;fill:#80deea;fill-opacity:1;stroke:none;stroke-width:6.9000001;stroke-linecap:round;stroke-linejoin:miter;stroke-miterlimit:4;stroke-dasharray:none;stroke-dashoffset:0;stroke-opacity:1"/><path d="m 96.568596,46.117982 0.612827,0 0,8.341746 -0.612827,0 z" id="rect16352" style="color:#000000;clip-rule:nonzero;display:inline;overflow:visible;visibility:visible;opacity:1;isolation:auto;mix-blend-mode:normal;color-interpolation:sRGB;color-interpolation-filters:linearRGB;solid-color:#000000;solid-opacity:1;fill:#37474f;fill-opacity:1;fill-rule:nonzero;stroke:none;stroke-width:35.20000076;stroke-linecap:butt;stroke-linejoin:miter;stroke-miterlimit:4;stroke-dasharray:none;stroke-dashoffset:0;stroke-opacity:1;color-rendering:auto;image-rendering:auto;shape-rendering:auto;text-rendering:auto;enable-background:accumulate"/><path d="m 98.549927,47.194764 c -0.284735,0.493174 -3.065082,0.493174 -3.349815,0 -0.284735,-0.493174 1.105438,-2.901026 1.674907,-2.901026 0.569469,0 1.959641,2.407852 1.674908,2.901026 z" id="path16354" style="color:#000000;clip-rule:nonzero;display:inline;overflow:visible;visibility:visible;opacity:1;isolation:auto;mix-blend-mode:normal;color-interpolation:sRGB;color-interpolation-filters:linearRGB;solid-color:#000000;solid-opacity:1;fill:#37474f;fill-opacity:1;fill-rule:nonzero;stroke:none;stroke-width:35.20000076;stroke-linecap:butt;stroke-linejoin:miter;stroke-miterlimit:4;stroke-dasharray:none;stroke-dashoffset:0;stroke-opacity:1;color-rendering:auto;image-rendering:auto;shape-rendering:auto;text-rendering:auto;enable-background:accumulate"/><path d="m 99.752689,50.748795 c -0.489204,0.847326 -5.266136,0.847326 -5.755341,0 -0.489204,-0.847326 1.899262,-4.984271 2.877671,-4.984271 0.978408,0 3.366871,4.136945 2.87767,4.984271 z" id="path16356" style="color:#000000;clip-rule:nonzero;display:inline;overflow:visible;visibility:visible;opacity:1;isolation:auto;mix-blend-mode:normal;color-interpolation:sRGB;color-interpolation-filters:linearRGB;solid-color:#000000;solid-opacity:1;fill:#37474f;fill-opacity:1;fill-rule:nonzero;stroke:none;stroke-width:35.20000076;stroke-linecap:butt;stroke-linejoin:miter;stroke-miterlimit:4;stroke-dasharray:none;stroke-dashoffset:0;stroke-opacity:1;color-rendering:auto;image-rendering:auto;shape-rendering:auto;text-rendering:auto;enable-background:accumulate"/><path d="m 88.884814,42.226948 0.862266,0 0,11.737105 -0.862266,0 z" id="rect16360" style="color:#000000;clip-rule:nonzero;display:inline;overflow:visible;visibility:visible;opacity:1;isolation:auto;mix-blend-mode:normal;color-interpolation:sRGB;color-interpolation-filters:linearRGB;solid-color:#000000;solid-opacity:1;fill:#263238;fill-opacity:1;fill-rule:nonzero;stroke:none;stroke-width:35.20000076;stroke-linecap:butt;stroke-linejoin:miter;stroke-miterlimit:4;stroke-dasharray:none;stroke-dashoffset:0;stroke-opacity:1;color-rendering:auto;image-rendering:auto;shape-rendering:auto;text-rendering:auto;enable-background:accumulate"/><path d="m 91.672605,43.742018 c -0.400631,0.693912 -4.312668,0.693912 -4.713298,0 -0.400631,-0.693912 1.555388,-4.081836 2.356648,-4.081836 0.801261,0 2.757279,3.387924 2.35665,4.081836 z" id="path16362" style="color:#000000;clip-rule:nonzero;display:inline;overflow:visible;visibility:visible;opacity:1;isolation:auto;mix-blend-mode:normal;color-interpolation:sRGB;color-interpolation-filters:linearRGB;solid-color:#000000;solid-opacity:1;fill:#263238;fill-opacity:1;fill-rule:nonzero;stroke:none;stroke-width:35.20000076;stroke-linecap:butt;stroke-linejoin:miter;stroke-miterlimit:4;stroke-dasharray:none;stroke-dashoffset:0;stroke-opacity:1;color-rendering:auto;image-rendering:auto;shape-rendering:auto;text-rendering:auto;enable-background:accumulate"/><path d="m 93.36493,48.742652 c -0.688325,1.192215 -7.409623,1.192215 -8.097948,0 -0.688326,-1.192215 2.672322,-7.013029 4.048973,-7.013029 1.376653,0 4.737301,5.820814 4.048975,7.013029 z" id="path16364" style="color:#000000;clip-rule:nonzero;display:inline;overflow:visible;visibility:visible;opacity:1;isolation:auto;mix-blend-mode:normal;color-interpolation:sRGB;color-interpolation-filters:linearRGB;solid-color:#000000;solid-opacity:1;fill:#263238;fill-opacity:1;fill-rule:nonzero;stroke:none;stroke-width:35.20000076;stroke-linecap:butt;stroke-linejoin:miter;stroke-miterlimit:4;stroke-dasharray:none;stroke-dashoffset:0;stroke-opacity:1;color-rendering:auto;image-rendering:auto;shape-rendering:auto;text-rendering:auto;enable-background:accumulate"/><path d="m 18.275723,44.795164 0.742308,0 0,10.104234 -0.742308,0 z" id="rect16368" style="color:#000000;clip-rule:nonzero;display:inline;overflow:visible;visibility:visible;opacity:1;isolation:auto;mix-blend-mode:normal;color-interpolation:sRGB;color-interpolation-filters:linearRGB;solid-color:#000000;solid-opacity:1;fill:#263238;fill-opacity:1;fill-rule:nonzero;stroke:none;stroke-width:35.20000076;stroke-linecap:butt;stroke-linejoin:miter;stroke-miterlimit:4;stroke-dasharray:none;stroke-dashoffset:0;stroke-opacity:1;color-rendering:auto;image-rendering:auto;shape-rendering:auto;text-rendering:auto;enable-background:accumulate"/><path d="m 20.675675,46.099453 c -0.344894,0.597376 -3.712687,0.597376 -4.057582,0 -0.344894,-0.597374 1.339002,-3.513969 2.028791,-3.513969 0.689789,0 2.373686,2.916595 2.028791,3.513969 z" id="path16370" style="color:#000000;clip-rule:nonzero;display:inline;overflow:visible;visibility:visible;opacity:1;isolation:auto;mix-blend-mode:normal;color-interpolation:sRGB;color-interpolation-filters:linearRGB;solid-color:#000000;solid-opacity:1;fill:#263238;fill-opacity:1;fill-rule:nonzero;stroke:none;stroke-width:35.20000076;stroke-linecap:butt;stroke-linejoin:miter;stroke-miterlimit:4;stroke-dasharray:none;stroke-dashoffset:0;stroke-opacity:1;color-rendering:auto;image-rendering:auto;shape-rendering:auto;text-rendering:auto;enable-background:accumulate"/><path d="m 22.132564,50.404398 c -0.592566,1.026354 -6.378794,1.026354 -6.97136,0 -0.592565,-1.026354 2.300549,-6.037374 3.48568,-6.037374 1.185131,0 4.078246,5.01102 3.48568,6.037374 z" id="path16372" style="color:#000000;clip-rule:nonzero;display:inline;overflow:visible;visibility:visible;opacity:1;isolation:auto;mix-blend-mode:normal;color-interpolation:sRGB;color-interpolation-filters:linearRGB;solid-color:#000000;solid-opacity:1;fill:#263238;fill-opacity:1;fill-rule:nonzero;stroke:none;stroke-width:35.20000076;stroke-linecap:butt;stroke-linejoin:miter;stroke-miterlimit:4;stroke-dasharray:none;stroke-dashoffset:0;stroke-opacity:1;color-rendering:auto;image-rendering:auto;shape-rendering:auto;text-rendering:auto;enable-background:accumulate"/><path d="M 7.9975402,52.445925 A 52.613281,52.613281 0 0 0 7.3869811,59.999799 52.613281,52.613281 0 0 0 59.999514,112.61363 52.613281,52.613281 0 0 0 112.61334,59.999799 52.613281,52.613281 0 0 0 112.01698,52.445925 l -104.0194398,0 z" id="path16374" style="fill:#4e342e;fill-opacity:1;fill-rule:evenodd;stroke:none;stroke-width:2.6039536px;stroke-linecap:butt;stroke-linejoin:miter;stroke-opacity:1"/><path d="m 7.9975402,52.445925 a 52.613281,52.613281 0 0 0 -0.4646985,4.626299 l 104.9772383,0 a 52.613281,52.613281 0 0 0 -0.4931,-4.626299 l -104.0194398,0 z" id="path16376" style="color:#000000;clip-rule:nonzero;display:inline;overflow:visible;visibility:visible;opacity:1;isolation:auto;mix-blend-mode:normal;color-interpolation:sRGB;color-interpolation-filters:linearRGB;solid-color:#000000;solid-opacity:1;fill:#3e2723;fill-opacity:1;fill-rule:nonzero;stroke:none;stroke-width:35.20000076;stroke-linecap:butt;stroke-linejoin:miter;stroke-miterlimit:4;stroke-dasharray:none;stroke-dashoffset:0;stroke-opacity:1;color-rendering:auto;image-rendering:auto;shape-rendering:auto;text-rendering:auto;enable-background:accumulate"/><path d="m 47.441128,52.445925 0,58.590315 a 52.613281,52.613281 0 0 0 12.558386,1.57739 52.613281,52.613281 0 0 0 12.559681,-1.58642 l 0,-58.581285 -25.118067,0 z" id="path16378" style="color:#000000;clip-rule:nonzero;display:inline;overflow:visible;visibility:visible;opacity:1;isolation:auto;mix-blend-mode:normal;color-interpolation:sRGB;color-interpolation-filters:linearRGB;solid-color:#000000;solid-opacity:1;fill:#03a9f4;fill-opacity:1;fill-rule:nonzero;stroke:none;stroke-width:35.20000076;stroke-linecap:butt;stroke-linejoin:miter;stroke-miterlimit:4;stroke-dasharray:none;stroke-dashoffset:0;stroke-opacity:1;color-rendering:auto;image-rendering:auto;shape-rendering:auto;text-rendering:auto;enable-background:accumulate"/><path d="m 58.02179,52.445951 11.245279,0 -1.427978,-2.427581 -1.642162,-0.464085 -0.892479,-2.534637 -1.999157,0 -0.999606,-1.356594 -1.392264,1.178092 -0.392684,1.963446 -1.606467,-0.249872 -0.856782,1.784943 -0.9639,0.785404 z" id="path16380" style="fill:#263238;fill-rule:evenodd;stroke:none;stroke-width:2.6039536px;stroke-linecap:butt;stroke-linejoin:miter;stroke-opacity:1"/></svg>