<?xml version="1.0" ?><svg width="120px" height="120px" viewBox="0 0 120 120" id="svg4254" version="1.1" xmlns="http://www.w3.org/2000/svg" xmlns:cc="http://creativecommons.org/ns#" xmlns:dc="http://purl.org/dc/elements/1.1/" xmlns:rdf="http://www.w3.org/1999/02/22-rdf-syntax-ns#" xmlns:svg="http://www.w3.org/2000/svg"><defs id="defs4256"/><path d="M 112.61327,59.999933 A 52.613285,52.613215 0 0 1 59.999988,112.61315 52.613285,52.613215 0 0 1 7.3867023,59.999933 52.613285,52.613215 0 0 1 59.999988,7.3867164 52.613285,52.613215 0 0 1 112.61327,59.999933 Z" id="circle9602" style="opacity:1;fill:#80deea;fill-opacity:1;stroke:none;stroke-width:6.9000001;stroke-linecap:round;stroke-linejoin:miter;stroke-miterlimit:4;stroke-dasharray:none;stroke-dashoffset:0;stroke-opacity:1"/><path d="m 25.024378,48.279845 0.212831,0 0,2.897036 -0.212831,0 z" id="rect9636" style="color:#000000;clip-rule:nonzero;display:inline;overflow:visible;visibility:visible;opacity:1;isolation:auto;mix-blend-mode:normal;color-interpolation:sRGB;color-interpolation-filters:linearRGB;solid-color:#000000;solid-opacity:1;fill:#03a9f4;fill-opacity:1;fill-rule:nonzero;stroke:none;stroke-width:35.20000076;stroke-linecap:butt;stroke-linejoin:miter;stroke-miterlimit:4;stroke-dasharray:none;stroke-dashoffset:0;stroke-opacity:1;color-rendering:auto;image-rendering:auto;shape-rendering:auto;text-rendering:auto;enable-background:accumulate"/><path d="m 25.712483,48.653805 c -0.09889,0.171276 -1.064485,0.171276 -1.163371,0 -0.09889,-0.171277 0.383912,-1.007508 0.581685,-1.007508 0.197774,0 0.680573,0.836231 0.581686,1.007508 z" id="path9638" style="color:#000000;clip-rule:nonzero;display:inline;overflow:visible;visibility:visible;opacity:1;isolation:auto;mix-blend-mode:normal;color-interpolation:sRGB;color-interpolation-filters:linearRGB;solid-color:#000000;solid-opacity:1;fill:#03a9f4;fill-opacity:1;fill-rule:nonzero;stroke:none;stroke-width:35.20000076;stroke-linecap:butt;stroke-linejoin:miter;stroke-miterlimit:4;stroke-dasharray:none;stroke-dashoffset:0;stroke-opacity:1;color-rendering:auto;image-rendering:auto;shape-rendering:auto;text-rendering:auto;enable-background:accumulate"/><path d="m 26.130196,49.888097 c -0.169898,0.294271 -1.828899,0.294271 -1.998797,0 -0.169898,-0.294271 0.659603,-1.731006 0.999398,-1.731006 0.339796,0 1.169296,1.436735 0.999399,1.731006 z" id="path9640" style="color:#000000;clip-rule:nonzero;display:inline;overflow:visible;visibility:visible;opacity:1;isolation:auto;mix-blend-mode:normal;color-interpolation:sRGB;color-interpolation-filters:linearRGB;solid-color:#000000;solid-opacity:1;fill:#03a9f4;fill-opacity:1;fill-rule:nonzero;stroke:none;stroke-width:35.20000076;stroke-linecap:butt;stroke-linejoin:miter;stroke-miterlimit:4;stroke-dasharray:none;stroke-dashoffset:0;stroke-opacity:1;color-rendering:auto;image-rendering:auto;shape-rendering:auto;text-rendering:auto;enable-background:accumulate"/><path d="m 11.050446,53.064719 0.137004,0 0,1.864888 -0.137004,0 z" id="rect9644" style="color:#000000;clip-rule:nonzero;display:inline;overflow:visible;visibility:visible;opacity:1;isolation:auto;mix-blend-mode:normal;color-interpolation:sRGB;color-interpolation-filters:linearRGB;solid-color:#000000;solid-opacity:1;fill:#03a9f4;fill-opacity:1;fill-rule:nonzero;stroke:none;stroke-width:35.20000076;stroke-linecap:butt;stroke-linejoin:miter;stroke-miterlimit:4;stroke-dasharray:none;stroke-dashoffset:0;stroke-opacity:1;color-rendering:auto;image-rendering:auto;shape-rendering:auto;text-rendering:auto;enable-background:accumulate"/><path d="m 11.493395,53.305446 c -0.06365,0.110254 -0.685233,0.110254 -0.748888,0 -0.06366,-0.110255 0.247133,-0.648556 0.374444,-0.648556 0.127311,0 0.4381,0.538301 0.374444,0.648556 z" id="path9646" style="color:#000000;clip-rule:nonzero;display:inline;overflow:visible;visibility:visible;opacity:1;isolation:auto;mix-blend-mode:normal;color-interpolation:sRGB;color-interpolation-filters:linearRGB;solid-color:#000000;solid-opacity:1;fill:#03a9f4;fill-opacity:1;fill-rule:nonzero;stroke:none;stroke-width:35.20000076;stroke-linecap:butt;stroke-linejoin:miter;stroke-miterlimit:4;stroke-dasharray:none;stroke-dashoffset:0;stroke-opacity:1;color-rendering:auto;image-rendering:auto;shape-rendering:auto;text-rendering:auto;enable-background:accumulate"/><path d="m 11.762286,54.099987 c -0.109367,0.189429 -1.177304,0.189429 -1.28667,0 -0.109367,-0.189429 0.424601,-1.114288 0.643335,-1.114288 0.218734,0 0.752702,0.924859 0.643335,1.114288 z" id="path9648" style="color:#000000;clip-rule:nonzero;display:inline;overflow:visible;visibility:visible;opacity:1;isolation:auto;mix-blend-mode:normal;color-interpolation:sRGB;color-interpolation-filters:linearRGB;solid-color:#000000;solid-opacity:1;fill:#03a9f4;fill-opacity:1;fill-rule:nonzero;stroke:none;stroke-width:35.20000076;stroke-linecap:butt;stroke-linejoin:miter;stroke-miterlimit:4;stroke-dasharray:none;stroke-dashoffset:0;stroke-opacity:1;color-rendering:auto;image-rendering:auto;shape-rendering:auto;text-rendering:auto;enable-background:accumulate"/><path d="M 18.505128,47.20668 7.4749846,58.23683 c -0.039264,0.587218 -0.068705,1.175053 -0.088248,1.763258 2.53e-5,29.057459 23.5557648,52.613182 52.6132648,52.613192 20.020165,-0.0273 38.290009,-11.41432 47.132109,-29.376065 L 78.030986,50.754023 59.147845,70.671836 Z" id="path9604" style="fill:#03a9f4;fill-opacity:1;fill-rule:evenodd;stroke:none;stroke-width:1px;stroke-linecap:butt;stroke-linejoin:miter;stroke-opacity:1"/><path d="m 72.542037,49.751571 a 6.7921822,6.792173 0 0 1 -6.792182,6.792173 6.7921822,6.792173 0 0 1 -6.792182,-6.792173 6.7921822,6.792173 0 0 1 6.792182,-6.792173 6.7921822,6.792173 0 0 1 6.792182,6.792173 z" id="circle9606" style="opacity:1;fill:#fff59d;fill-opacity:1;stroke:none;stroke-width:6.9000001;stroke-linecap:round;stroke-linejoin:miter;stroke-miterlimit:4;stroke-dasharray:none;stroke-dashoffset:0;stroke-opacity:1"/><path d="m 101.76655,60.502242 0.30496,0 0,4.151045 -0.30496,0 z" id="rect9615" style="color:#000000;clip-rule:nonzero;display:inline;overflow:visible;visibility:visible;opacity:1;isolation:auto;mix-blend-mode:normal;color-interpolation:sRGB;color-interpolation-filters:linearRGB;solid-color:#000000;solid-opacity:1;fill:#00897b;fill-opacity:1;fill-rule:nonzero;stroke:none;stroke-width:35.20000076;stroke-linecap:butt;stroke-linejoin:miter;stroke-miterlimit:4;stroke-dasharray:none;stroke-dashoffset:0;stroke-opacity:1;color-rendering:auto;image-rendering:auto;shape-rendering:auto;text-rendering:auto;enable-background:accumulate"/><path d="m 102.75251,61.038076 c -0.14169,0.245415 -1.52525,0.245415 -1.66694,0 -0.1417,-0.245415 0.55009,-1.443617 0.83347,-1.443617 0.28338,0 0.97516,1.198202 0.83347,1.443617 z" id="path9617" style="color:#000000;clip-rule:nonzero;display:inline;overflow:visible;visibility:visible;opacity:1;isolation:auto;mix-blend-mode:normal;color-interpolation:sRGB;color-interpolation-filters:linearRGB;solid-color:#000000;solid-opacity:1;fill:#00897b;fill-opacity:1;fill-rule:nonzero;stroke:none;stroke-width:35.20000076;stroke-linecap:butt;stroke-linejoin:miter;stroke-miterlimit:4;stroke-dasharray:none;stroke-dashoffset:0;stroke-opacity:1;color-rendering:auto;image-rendering:auto;shape-rendering:auto;text-rendering:auto;enable-background:accumulate"/><path d="m 103.35104,62.806642 c -0.24344,0.421649 -2.62056,0.421649 -2.864,0 -0.24344,-0.421649 0.94512,-2.480288 1.432,-2.480288 0.48688,0 1.67544,2.058639 1.432,2.480288 z" id="path9619" style="color:#000000;clip-rule:nonzero;display:inline;overflow:visible;visibility:visible;opacity:1;isolation:auto;mix-blend-mode:normal;color-interpolation:sRGB;color-interpolation-filters:linearRGB;solid-color:#000000;solid-opacity:1;fill:#00897b;fill-opacity:1;fill-rule:nonzero;stroke:none;stroke-width:35.20000076;stroke-linecap:butt;stroke-linejoin:miter;stroke-miterlimit:4;stroke-dasharray:none;stroke-dashoffset:0;stroke-opacity:1;color-rendering:auto;image-rendering:auto;shape-rendering:auto;text-rendering:auto;enable-background:accumulate"/><path d="m 103.88817,64.711752 0.12249,0 0,1.667378 -0.12249,0 z" id="rect9628" style="color:#000000;clip-rule:nonzero;display:inline;overflow:visible;visibility:visible;opacity:1;isolation:auto;mix-blend-mode:normal;color-interpolation:sRGB;color-interpolation-filters:linearRGB;solid-color:#000000;solid-opacity:1;fill:#00897b;fill-opacity:1;fill-rule:nonzero;stroke:none;stroke-width:35.20000076;stroke-linecap:butt;stroke-linejoin:miter;stroke-miterlimit:4;stroke-dasharray:none;stroke-dashoffset:0;stroke-opacity:1;color-rendering:auto;image-rendering:auto;shape-rendering:auto;text-rendering:auto;enable-background:accumulate"/><path d="m 104.2842,64.926984 c -0.0569,0.09858 -0.61266,0.09858 -0.66958,0 -0.0569,-0.09858 0.22096,-0.579868 0.33479,-0.579868 0.11383,0 0.3917,0.48129 0.33479,0.579868 z" id="path9630" style="color:#000000;clip-rule:nonzero;display:inline;overflow:visible;visibility:visible;opacity:1;isolation:auto;mix-blend-mode:normal;color-interpolation:sRGB;color-interpolation-filters:linearRGB;solid-color:#000000;solid-opacity:1;fill:#00897b;fill-opacity:1;fill-rule:nonzero;stroke:none;stroke-width:35.20000076;stroke-linecap:butt;stroke-linejoin:miter;stroke-miterlimit:4;stroke-dasharray:none;stroke-dashoffset:0;stroke-opacity:1;color-rendering:auto;image-rendering:auto;shape-rendering:auto;text-rendering:auto;enable-background:accumulate"/><path d="m 104.52461,65.637376 c -0.0978,0.169366 -1.05261,0.169366 -1.1504,0 -0.0978,-0.169367 0.37963,-0.996274 0.5752,-0.996274 0.19557,0 0.67299,0.826907 0.5752,0.996274 z" id="path9632" style="color:#000000;clip-rule:nonzero;display:inline;overflow:visible;visibility:visible;opacity:1;isolation:auto;mix-blend-mode:normal;color-interpolation:sRGB;color-interpolation-filters:linearRGB;solid-color:#000000;solid-opacity:1;fill:#00897b;fill-opacity:1;fill-rule:nonzero;stroke:none;stroke-width:35.20000076;stroke-linecap:butt;stroke-linejoin:miter;stroke-miterlimit:4;stroke-dasharray:none;stroke-dashoffset:0;stroke-opacity:1;color-rendering:auto;image-rendering:auto;shape-rendering:auto;text-rendering:auto;enable-background:accumulate"/><path d="M 50.121376,34.123279 9.5202829,74.724305 A 52.613284,52.613215 0 0 0 60.000001,112.61328 52.613284,52.613215 0 0 0 110.85989,73.212375 L 84.151246,46.503756 76.227234,60.228613 50.121376,34.123279 Z" id="path9608" style="fill:#4fc3f7;fill-opacity:1;fill-rule:evenodd;stroke:none;stroke-width:1px;stroke-linecap:butt;stroke-linejoin:miter;stroke-opacity:1"/><path d="m 50.121492,34.123872 -13.366444,13.36513 c 4.634846,2.671717 11.159136,6.705806 11.159136,6.705806 l 4.334578,-7.507404 3.754996,3.753702 3.819533,-6.615441 -9.701799,-9.701793 z" id="path9610" style="fill:#ffffff;fill-rule:evenodd;stroke:none;stroke-width:2.6039536px;stroke-linecap:butt;stroke-linejoin:miter;stroke-opacity:1"/></svg>